<svg version="1.1" id="Layer_1" xmlns="http://www.w3.org/2000/svg" xmlns:xlink="http://www.w3.org/1999/xlink" x="0px" y="0px"
	 width="100%" viewBox="0 0 512 512" enable-background="new 0 0 512 512" xml:space="preserve">
<path fill="#000000" opacity="1.000000" stroke="none" 
	d="
M298.000000,513.000000 
	C198.690781,513.000000 99.881554,513.000000 1.036167,513.000000 
	C1.036167,342.399078 1.036167,171.798172 1.036167,1.098622 
	C171.559235,1.098622 342.118561,1.098622 512.838928,1.098622 
	C512.838928,171.666550 512.838928,342.333252 512.838928,513.000000 
	C441.464813,513.000000 369.982391,513.000000 298.000000,513.000000 
M283.853088,64.270988 
	C275.891449,48.987404 264.837646,36.227062 251.729568,25.191349 
	C246.323669,20.640099 240.652496,16.452766 232.099655,17.016521 
	C228.837448,17.768095 225.081207,17.742352 222.417389,19.435413 
	C217.109299,22.809114 212.141144,26.843477 207.493546,31.107403 
	C192.522934,44.842178 181.904892,61.500065 174.980621,81.458603 
	C171.022110,92.290665 169.079269,103.492035 168.205383,114.717545 
	C163.462601,112.811989 158.796127,109.534737 153.962280,109.265762 
	C141.011230,108.545120 127.988457,109.113297 114.092773,109.038506 
	C106.261070,108.277687 98.785011,109.900917 93.046646,115.144905 
	C83.998825,123.413208 75.270378,132.105637 67.098709,141.237732 
	C58.384087,150.976593 58.853069,168.508392 68.214157,177.930695 
	C74.148605,183.903946 78.799805,191.413925 76.835274,200.327927 
	C75.185745,207.812683 72.448334,215.192947 69.156433,222.127625 
	C67.305183,226.027481 63.533669,229.115448 60.310383,232.242554 
	C54.502571,237.877106 46.615250,236.780228 39.534187,237.909729 
	C26.016273,240.066025 16.420179,253.918060 16.878010,263.710388 
	C17.406528,275.014618 17.522371,286.393768 16.847116,297.682343 
	C16.229586,308.005859 26.208202,322.282501 39.902813,324.096344 
	C46.260990,324.938477 53.193409,325.567078 58.609295,328.563202 
	C70.747185,335.278137 74.233902,348.044891 76.865189,360.511932 
	C78.848328,369.908020 74.341568,377.877289 67.985100,384.381470 
	C59.273876,393.295166 58.265324,410.258820 66.551659,419.886047 
	C73.462242,427.914917 81.115379,435.307312 88.485390,442.937408 
	C95.457306,450.155334 103.773254,454.000458 114.936134,452.992462 
	C124.739990,452.994934 134.559723,452.648834 144.343399,453.094421 
	C154.880295,453.574310 164.497589,452.062958 172.836151,443.992493 
	C180.477951,447.025208 185.385406,452.716339 187.616257,460.419922 
	C188.959335,465.057922 189.175949,470.013794 190.029327,474.803528 
	C192.264618,487.349731 202.816879,496.334412 213.031296,496.814331 
	C226.652130,497.454285 240.329926,496.881561 254.912827,496.982330 
	C267.232910,496.988220 279.553040,497.015198 291.872955,496.971649 
	C293.309479,496.966583 294.813416,496.778198 296.169800,496.325928 
	C310.930145,491.404236 315.991028,481.837982 316.803833,469.129242 
	C317.564026,457.243835 322.791870,449.127380 333.703430,444.150787 
	C340.938873,450.527466 349.058685,454.327850 359.922699,452.987732 
	C371.582123,452.991760 383.243011,452.887329 394.900391,453.043396 
	C401.192719,453.127625 407.139679,451.746857 411.719177,447.615662 
	C420.947418,439.290894 430.414734,431.049377 438.456116,421.639282 
	C447.408508,411.163116 447.989502,395.520905 437.737000,384.093872 
	C432.221039,377.945923 427.396057,370.887146 429.152344,362.058868 
	C430.493958,355.314972 432.743927,348.645752 435.429260,342.298462 
	C440.191193,331.042664 448.788116,325.426880 461.349915,324.852966 
	C477.859924,324.098633 490.226044,311.417816 489.805756,295.701721 
	C489.885071,286.921387 490.003113,278.141052 489.997437,269.360779 
	C489.996674,268.193878 489.367310,267.027344 489.003876,264.992676 
	C490.594574,252.752609 478.247498,239.287125 465.738525,237.876877 
	C459.686584,237.194580 453.138367,236.496735 447.919128,233.725861 
	C435.387756,227.072968 431.883331,214.152420 429.162201,201.538498 
	C427.136475,192.148270 431.688568,184.169022 438.022949,177.619217 
	C446.849945,168.492065 447.766266,151.970230 439.751251,142.515106 
	C431.619141,132.921906 422.798737,123.787796 413.385101,115.464470 
	C409.432587,111.969742 403.272278,109.628120 397.954254,109.288330 
	C385.020233,108.461929 371.991699,109.114189 358.098785,109.039116 
	C355.023895,109.226410 351.619751,108.633926 348.942993,109.764114 
	C343.454926,112.081291 338.356903,115.322281 332.420990,117.902359 
	C322.655396,112.528961 317.357391,104.638611 316.859619,93.146744 
	C316.435455,83.353935 312.440308,75.151283 303.912384,69.180504 
	C297.692596,64.825768 291.025940,64.982277 283.853088,64.270988 
z"/>
<path fill="#FFCD05" opacity="1.000000" stroke="none" 
	d="
M358.996185,452.832825 
	C349.058685,454.327850 340.938873,450.527466 333.305420,443.656982 
	C326.945862,436.672394 319.260773,434.961670 311.138000,436.649139 
	C305.361877,437.849121 299.893280,440.576477 294.325134,442.720001 
	C284.522583,446.493561 278.708984,453.664246 276.804077,463.931641 
	C276.111755,467.663208 276.192932,471.555176 275.328766,475.234802 
	C272.635101,486.704254 264.743958,493.232025 253.983261,496.829712 
	C240.329926,496.881561 226.652130,497.454285 213.031296,496.814331 
	C202.816879,496.334412 192.264618,487.349731 190.029327,474.803528 
	C189.175949,470.013794 188.959335,465.057922 187.616257,460.419922 
	C185.385406,452.716339 180.477951,447.025208 172.273926,443.706848 
	C166.723404,441.260406 161.875916,438.647400 156.715134,437.040649 
	C148.114136,434.362793 140.140121,436.686890 133.396164,442.278656 
	C127.564270,447.114136 121.635391,451.440430 114.013100,452.837738 
	C103.773254,454.000458 95.457306,450.155334 88.485390,442.937408 
	C81.115379,435.307312 73.462242,427.914917 66.551659,419.886047 
	C58.265324,410.258820 59.273876,393.295166 67.985100,384.381470 
	C74.341568,377.877289 78.848328,369.908020 76.865189,360.511932 
	C74.233902,348.044891 70.747185,335.278137 58.609295,328.563202 
	C53.193409,325.567078 46.260990,324.938477 39.902813,324.096344 
	C26.208202,322.282501 16.229586,308.005859 16.847116,297.682343 
	C17.522371,286.393768 17.406528,275.014618 16.878010,263.710388 
	C16.420179,253.918060 26.016273,240.066025 39.534187,237.909729 
	C46.615250,236.780228 54.502571,237.877106 60.310383,232.242554 
	C63.533669,229.115448 67.305183,226.027481 69.156433,222.127625 
	C72.448334,215.192947 75.185745,207.812683 76.835274,200.327927 
	C78.799805,191.413925 74.148605,183.903946 68.214157,177.930695 
	C58.853069,168.508392 58.384087,150.976593 67.098709,141.237732 
	C75.270378,132.105637 83.998825,123.413208 93.046646,115.144905 
	C98.785011,109.900917 106.261070,108.277687 114.843750,109.296967 
	C120.801414,112.298584 126.714340,114.217278 131.072800,117.950684 
	C141.210373,126.634392 151.808258,128.060089 163.715042,122.687378 
	C165.350525,121.949402 167.125687,121.520943 168.902893,121.416855 
	C168.924728,131.936829 168.879883,141.989166 168.534332,152.192657 
	C157.265518,159.955551 145.704544,166.856735 135.493729,175.376129 
	C124.998512,184.132812 126.444870,189.210297 138.859619,194.155396 
	C135.652283,198.163834 132.478180,201.774399 129.609802,205.613388 
	C118.126137,220.982910 111.158386,238.364716 106.739441,256.798828 
	C106.008209,256.133087 105.519318,255.677689 105.114861,255.156708 
	C98.855560,247.094223 95.182610,247.167175 88.838562,255.165451 
	C85.642509,259.194885 82.072609,262.927673 78.673416,266.796082 
	C76.006317,269.831329 71.537285,272.362000 73.530487,277.226929 
	C75.525536,282.096344 80.444298,281.059296 84.497482,280.938812 
	C88.069885,280.832611 89.020821,282.358002 89.082092,285.696014 
	C89.173302,290.665131 89.474953,295.674957 90.244492,300.580017 
	C96.820709,342.497009 117.195534,376.036438 152.264236,400.032318 
	C180.879791,419.612579 212.704376,427.463501 247.373428,424.148651 
	C279.376129,421.088715 306.909149,408.326385 330.500244,386.872528 
	C340.721436,377.577362 339.596161,372.795807 327.134247,367.839233 
	C329.018250,365.528198 330.778473,363.548309 332.457397,361.501770 
	C346.067474,344.911652 354.379059,325.830811 359.250183,305.183929 
	C361.072632,307.104553 362.513306,308.946320 364.171021,310.565948 
	C367.344696,313.666748 370.826477,313.771698 373.831238,310.532867 
	C379.824493,304.072693 385.767944,297.547882 391.375885,290.755737 
	C394.674133,286.761017 392.446045,281.954163 387.289459,281.140991 
	C385.821716,280.909576 384.270813,280.840149 382.803741,281.037048 
	C378.113159,281.666718 377.063843,279.567780 376.856018,275.100922 
	C376.180939,260.591858 373.763763,246.305588 368.656952,232.648117 
	C355.188721,196.629135 331.405182,169.678528 297.095642,151.580719 
	C297.073334,141.061569 297.115906,131.010162 297.526642,120.986923 
	C302.409943,122.544876 306.841888,124.422523 311.458801,125.526810 
	C319.318268,127.406647 329.486755,123.734642 333.098297,118.182938 
	C338.356903,115.322281 343.454926,112.081291 348.942993,109.764114 
	C351.619751,108.633926 355.023895,109.226410 358.851074,109.296280 
	C364.595825,112.068810 370.305237,113.747162 374.427551,117.278297 
	C382.372223,124.083618 389.616791,131.751968 396.780914,139.409317 
	C403.257965,146.332291 406.663055,154.842697 403.807678,164.131927 
	C402.019012,169.951004 398.500549,175.465103 394.825958,180.425400 
	C389.096100,188.160034 386.381500,196.275330 389.194855,205.633362 
	C390.577911,210.233795 392.727997,214.600067 394.456421,219.100922 
	C399.266235,231.625793 408.796783,237.435150 421.770355,237.947754 
	C436.840607,238.543213 448.909668,250.618607 448.988800,265.615356 
	C449.040649,275.440948 449.024628,285.267090 448.993866,295.092834 
	C448.941437,311.833801 437.354523,323.340271 420.534424,324.101593 
	C408.571411,324.643097 399.762115,330.465607 394.929718,341.710175 
	C393.747223,344.461731 392.722321,347.284515 391.458984,349.997223 
	C385.996307,361.727112 387.139496,372.381866 395.723816,382.420654 
	C408.630676,397.514404 407.866882,411.611572 393.865570,425.633026 
	C389.393829,430.111176 384.738892,434.421906 380.482758,439.096039 
	C374.520966,445.643341 367.777740,450.783844 358.996185,452.832825 
z"/>
<path fill="#FAA019" opacity="1.000000" stroke="none" 
	d="
M359.459442,452.910278 
	C367.777740,450.783844 374.520966,445.643341 380.482758,439.096039 
	C384.738892,434.421906 389.393829,430.111176 393.865570,425.633026 
	C407.866882,411.611572 408.630676,397.514404 395.723816,382.420654 
	C387.139496,372.381866 385.996307,361.727112 391.458984,349.997223 
	C392.722321,347.284515 393.747223,344.461731 394.929718,341.710175 
	C399.762115,330.465607 408.571411,324.643097 420.534424,324.101593 
	C437.354523,323.340271 448.941437,311.833801 448.993866,295.092834 
	C449.024628,285.267090 449.040649,275.440948 448.988800,265.615356 
	C448.909668,250.618607 436.840607,238.543213 421.770355,237.947754 
	C408.796783,237.435150 399.266235,231.625793 394.456421,219.100922 
	C392.727997,214.600067 390.577911,210.233795 389.194855,205.633362 
	C386.381500,196.275330 389.096100,188.160034 394.825958,180.425400 
	C398.500549,175.465103 402.019012,169.951004 403.807678,164.131927 
	C406.663055,154.842697 403.257965,146.332291 396.780914,139.409317 
	C389.616791,131.751968 382.372223,124.083618 374.427551,117.278297 
	C370.305237,113.747162 364.595825,112.068810 359.302307,109.362152 
	C371.991699,109.114189 385.020233,108.461929 397.954254,109.288330 
	C403.272278,109.628120 409.432587,111.969742 413.385101,115.464470 
	C422.798737,123.787796 431.619141,132.921906 439.751251,142.515106 
	C447.766266,151.970230 446.849945,168.492065 438.022949,177.619217 
	C431.688568,184.169022 427.136475,192.148270 429.162201,201.538498 
	C431.883331,214.152420 435.387756,227.072968 447.919128,233.725861 
	C453.138367,236.496735 459.686584,237.194580 465.738525,237.876877 
	C478.247498,239.287125 490.594574,252.752609 488.980835,265.903564 
	C488.981506,276.589447 489.005219,286.364471 489.028931,296.139465 
	C490.226044,311.417816 477.859924,324.098633 461.349915,324.852966 
	C448.788116,325.426880 440.191193,331.042664 435.429260,342.298462 
	C432.743927,348.645752 430.493958,355.314972 429.152344,362.058868 
	C427.396057,370.887146 432.221039,377.945923 437.737000,384.093872 
	C447.989502,395.520905 447.408508,411.163116 438.456116,421.639282 
	C430.414734,431.049377 420.947418,439.290894 411.719177,447.615662 
	C407.139679,451.746857 401.192719,453.127625 394.900391,453.043396 
	C383.243011,452.887329 371.582123,452.991760 359.459442,452.910278 
z"/>
<path fill="#D7E6F0" opacity="1.000000" stroke="none" 
	d="
M168.835022,152.041489 
	C168.879883,141.989166 168.924728,131.936829 168.969421,120.998276 
	C168.924301,118.409538 168.879349,116.707016 168.834412,115.004501 
	C169.079269,103.492035 171.022110,92.290665 175.530701,81.161713 
	C195.048386,80.879280 214.015976,80.893745 233.005920,80.943283 
	C233.028275,80.978340 233.026627,81.061485 233.017075,81.522224 
	C232.961334,86.924896 232.915131,91.866821 232.442566,96.868935 
	C206.262054,97.542274 188.013840,121.451866 193.911865,146.561920 
	C197.320724,161.074677 211.640106,177.114624 232.904816,177.646790 
	C232.940720,188.351151 232.940674,198.600220 232.581604,208.928772 
	C226.632401,210.163498 224.941803,213.896332 224.956909,219.224548 
	C225.043091,249.628403 225.064865,280.032928 224.927841,310.436401 
	C224.907074,315.047913 226.271347,318.489960 229.725586,320.905090 
	C217.169418,321.018951 205.102020,321.089996 192.621063,321.094818 
	C180.711655,320.305420 171.704254,313.028076 169.491257,302.057526 
	C168.679443,298.033112 169.042099,293.771759 168.915680,289.186768 
	C168.919479,262.346100 168.876602,235.937195 168.890854,209.092468 
	C168.908417,196.045944 168.868851,183.435211 168.890656,170.372269 
	C168.913040,163.960526 168.874039,158.001007 168.835022,152.041489 
z"/>
<path fill="#5BD7FF" opacity="1.000000" stroke="none" 
	d="
M232.983582,80.908218 
	C214.015976,80.893745 195.048386,80.879280 175.632141,80.760864 
	C181.904892,61.500065 192.522934,44.842178 207.493546,31.107403 
	C212.141144,26.843477 217.109299,22.809114 222.417389,19.435413 
	C225.081207,17.742352 228.837448,17.768095 232.538605,17.543768 
	C232.979584,39.016750 232.981583,59.962482 232.983582,80.908218 
z"/>
<path fill="#2488C3" opacity="1.000000" stroke="none" 
	d="
M233.005920,80.943283 
	C232.981583,59.962482 232.979584,39.016750 232.962723,17.612602 
	C240.652496,16.452766 246.323669,20.640099 251.729568,25.191349 
	C264.837646,36.227062 275.891449,48.987404 283.961548,64.957199 
	C286.078796,70.724243 288.087585,75.805061 289.622345,80.927307 
	C270.441071,80.999641 251.733856,81.030563 233.026627,81.061485 
	C233.026627,81.061485 233.028275,80.978340 233.005920,80.943283 
z"/>
<path fill="#FAA019" opacity="1.000000" stroke="none" 
	d="
M254.448044,496.906006 
	C264.743958,493.232025 272.635101,486.704254 275.328766,475.234802 
	C276.192932,471.555176 276.111755,467.663208 276.804077,463.931641 
	C278.708984,453.664246 284.522583,446.493561 294.325134,442.720001 
	C299.893280,440.576477 305.361877,437.849121 311.138000,436.649139 
	C319.260773,434.961670 326.945862,436.672394 332.997314,443.492249 
	C322.791870,449.127380 317.564026,457.243835 316.803833,469.129242 
	C315.991028,481.837982 310.930145,491.404236 296.169800,496.325928 
	C294.813416,496.778198 293.309479,496.966583 291.872955,496.971649 
	C279.553040,497.015198 267.232910,496.988220 254.448044,496.906006 
z"/>
<path fill="#FAA01A" opacity="1.000000" stroke="none" 
	d="
M290.096375,80.885880 
	C288.087585,75.805061 286.078796,70.724243 284.114807,65.277573 
	C291.025940,64.982277 297.692596,64.825768 303.912384,69.180504 
	C312.440308,75.151283 316.435455,83.353935 316.859619,93.146744 
	C317.357391,104.638611 322.655396,112.528961 332.759644,118.042648 
	C329.486755,123.734642 319.318268,127.406647 311.458801,125.526810 
	C306.841888,124.422523 302.409943,122.544876 297.460602,120.537483 
	C296.747131,106.642647 295.021729,93.481224 290.096375,80.885880 
z"/>
<path fill="#FAA019" opacity="1.000000" stroke="none" 
	d="
M114.474617,452.915100 
	C121.635391,451.440430 127.564270,447.114136 133.396164,442.278656 
	C140.140121,436.686890 148.114136,434.362793 156.715134,437.040649 
	C161.875916,438.647400 166.723404,441.260406 171.911652,443.711365 
	C164.497589,452.062958 154.880295,453.574310 144.343399,453.094421 
	C134.559723,452.648834 124.739990,452.994934 114.474617,452.915100 
z"/>
<path fill="#FAA019" opacity="1.000000" stroke="none" 
	d="
M168.519897,114.861023 
	C168.879349,116.707016 168.924301,118.409538 168.902710,120.530624 
	C167.125687,121.520943 165.350525,121.949402 163.715042,122.687378 
	C151.808258,128.060089 141.210373,126.634392 131.072800,117.950684 
	C126.714340,114.217278 120.801414,112.298584 115.294449,109.362465 
	C127.988457,109.113297 141.011230,108.545120 153.962280,109.265762 
	C158.796127,109.534737 163.462601,112.811989 168.519897,114.861023 
z"/>
<path fill="#FFCD05" opacity="1.000000" stroke="none" 
	d="
M489.417358,295.920593 
	C489.005219,286.364471 488.981506,276.589447 488.993439,266.337555 
	C489.367310,267.027344 489.996674,268.193878 489.997437,269.360779 
	C490.003113,278.141052 489.885071,286.921387 489.417358,295.920593 
z"/>
<path fill="#A5C3DC" opacity="1.000000" stroke="none" 
	d="
M289.622375,80.927307 
	C295.021729,93.481224 296.747131,106.642647 297.092438,120.509323 
	C297.115906,131.010162 297.073334,141.061569 297.030396,152.039795 
	C297.077942,158.916275 297.125824,164.865921 297.110779,171.293488 
	C297.080841,184.273834 297.113861,196.776306 297.098267,209.727539 
	C297.088135,236.561371 297.126678,262.946411 297.111389,289.770874 
	C297.037933,291.693787 297.005524,293.177246 297.000519,294.660797 
	C296.947754,310.291718 288.603088,319.489014 272.492432,321.095398 
	C259.959808,320.974274 247.889145,320.915771 236.053650,320.601868 
	C239.938721,318.359985 241.042282,315.173187 241.034393,311.180328 
	C240.973602,280.416199 241.016327,249.651855 240.988312,218.887619 
	C240.982544,212.541107 239.272797,210.504715 232.940643,208.849274 
	C232.940674,198.600220 232.940720,188.351151 232.953735,177.548157 
	C232.966705,176.994202 233.064301,176.796799 233.484558,176.858444 
	C236.699661,176.576813 239.542740,176.453995 242.281616,175.854828 
	C261.448395,171.661789 275.320404,151.931061 272.797211,132.588379 
	C270.105225,111.951576 252.794937,96.535561 233.015869,97.105087 
	C232.966980,97.006271 232.868942,96.808754 232.868942,96.808754 
	C232.915131,91.866821 232.961334,86.924896 233.017075,81.522224 
	C251.733856,81.030563 270.441071,80.999641 289.622375,80.927307 
z"/>
<path fill="#555B6E" opacity="1.000000" stroke="none" 
	d="
M272.954407,321.157990 
	C288.603088,319.489014 296.947754,310.291718 297.000519,294.660797 
	C297.005524,293.177246 297.037933,291.693787 297.379822,289.912231 
	C306.789154,298.649933 315.898102,307.663849 324.952759,316.731964 
	C328.690369,320.475128 332.878601,322.210205 338.024048,319.991272 
	C343.085510,317.808655 345.008392,313.684937 345.009216,308.387878 
	C345.010254,301.898804 345.091248,295.409698 345.379578,289.145630 
	C350.069824,294.582031 354.518127,299.793396 358.966431,305.004730 
	C354.379059,325.830811 346.067474,344.911652 332.457397,361.501770 
	C330.778473,363.548309 329.018250,365.528198 326.846313,367.979126 
	C324.117920,370.609833 321.888428,372.854706 319.552246,374.982483 
	C295.585968,396.810333 267.326477,407.918213 235.230179,408.568115 
	C239.541443,406.659058 241.049072,403.506683 241.023651,399.243500 
	C240.951309,387.108948 240.971664,374.973633 241.013229,362.838776 
	C241.034409,356.654022 244.169128,352.943878 249.135742,353.035797 
	C253.950577,353.124847 256.935730,356.702576 256.984985,362.618958 
	C257.041748,369.433990 256.968536,376.250092 257.009460,383.065369 
	C257.046875,389.299316 260.084747,392.992279 265.045898,392.956787 
	C270.001953,392.921387 272.977203,389.254364 272.988403,382.963318 
	C273.015656,367.670044 272.985107,352.376709 272.983826,336.611725 
	C272.977997,331.146057 272.966217,326.152008 272.954407,321.157990 
z"/>
<path fill="#F9A019" opacity="1.000000" stroke="none" 
	d="
M234.978714,408.787933 
	C267.326477,407.918213 295.585968,396.810333 319.552246,374.982483 
	C321.888428,372.854706 324.117920,370.609833 326.684875,368.279388 
	C339.596161,372.795807 340.721436,377.577362 330.500244,386.872528 
	C306.909149,408.326385 279.376129,421.088715 247.373428,424.148651 
	C212.704376,427.463501 180.879791,419.612579 152.264236,400.032318 
	C117.195534,376.036438 96.820709,342.497009 90.244492,300.580017 
	C89.474953,295.674957 89.173302,290.665131 89.082092,285.696014 
	C89.020821,282.358002 88.069885,280.832611 84.497482,280.938812 
	C80.444298,281.059296 75.525536,282.096344 73.530487,277.226929 
	C71.537285,272.362000 76.006317,269.831329 78.673416,266.796082 
	C82.072609,262.927673 85.642509,259.194885 88.838562,255.165451 
	C95.182610,247.167175 98.855560,247.094223 105.114861,255.156708 
	C105.519318,255.677689 106.008209,256.133087 106.928909,257.073486 
	C111.877846,262.684387 116.355698,267.840820 120.879227,273.378754 
	C120.891258,275.017029 120.857620,276.273834 120.540459,277.776581 
	C116.367294,283.477722 110.210037,279.571686 104.383461,281.963715 
	C105.901184,291.855408 106.668869,302.145264 109.128006,312.013641 
	C123.292854,368.856384 173.740738,407.829407 231.407379,408.828735 
	C232.861938,408.843048 233.920334,408.815491 234.978714,408.787933 
z"/>
<path fill="#F9A019" opacity="1.000000" stroke="none" 
	d="
M359.250183,305.183929 
	C354.518127,299.793396 350.069824,294.582031 345.348450,288.739258 
	C345.082550,287.027588 345.089722,285.947327 345.328064,284.617371 
	C349.289276,278.288971 355.775818,282.539398 360.849884,280.326477 
	C360.849884,279.072418 360.913025,277.771912 360.840454,276.478973 
	C359.631836,254.952286 354.201813,234.649277 343.029999,216.076950 
	C331.611969,197.095276 316.720490,181.585159 297.173737,170.815582 
	C297.125824,164.865921 297.077942,158.916275 297.095276,152.507538 
	C331.405182,169.678528 355.188721,196.629135 368.656952,232.648117 
	C373.763763,246.305588 376.180939,260.591858 376.856018,275.100922 
	C377.063843,279.567780 378.113159,281.666718 382.803741,281.037048 
	C384.270813,280.840149 385.821716,280.909576 387.289459,281.140991 
	C392.446045,281.954163 394.674133,286.761017 391.375885,290.755737 
	C385.767944,297.547882 379.824493,304.072693 373.831238,310.532867 
	C370.826477,313.771698 367.344696,313.666748 364.171021,310.565948 
	C362.513306,308.946320 361.072632,307.104553 359.250183,305.183929 
z"/>
<path fill="#565A6E" opacity="1.000000" stroke="none" 
	d="
M120.833549,272.997253 
	C116.355698,267.840820 111.877846,262.684387 107.210526,257.253296 
	C111.158386,238.364716 118.126137,220.982910 129.609802,205.613388 
	C132.478180,201.774399 135.652283,198.163834 139.150955,194.022995 
	C149.353790,186.006638 159.091537,178.415573 168.829285,170.824493 
	C168.868851,183.435211 168.908417,196.045944 168.587555,209.266388 
	C156.693665,221.357697 145.569046,233.293259 133.490845,244.169891 
	C124.637634,252.142365 118.868927,260.659515 120.833549,272.997253 
z"/>
<path fill="#F9A019" opacity="1.000000" stroke="none" 
	d="
M168.890656,170.372284 
	C159.091537,178.415573 149.353790,186.006638 139.324707,193.730103 
	C126.444870,189.210297 124.998512,184.132812 135.493729,175.376129 
	C145.704544,166.856735 157.265518,159.955551 168.534332,152.192657 
	C168.874039,158.001007 168.913040,163.960526 168.890656,170.372284 
z"/>
<path fill="#555B6E" opacity="1.000000" stroke="none" 
	d="
M231.011200,408.786865 
	C173.740738,407.829407 123.292854,368.856384 109.128006,312.013641 
	C106.668869,302.145264 105.901184,291.855408 104.383461,281.963715 
	C110.210037,279.571686 116.367294,283.477722 120.605042,278.279846 
	C120.969360,288.512238 120.615875,298.509277 121.204086,308.450562 
	C121.407570,311.889648 123.186150,315.942841 125.593384,318.388702 
	C129.860245,322.724030 136.057297,321.777039 141.137512,316.851471 
	C150.438919,307.833191 159.631210,298.702393 168.869003,289.618500 
	C169.042099,293.771759 168.679443,298.033112 169.491257,302.057526 
	C171.704254,313.028076 180.711655,320.305420 192.611633,321.551514 
	C193.017853,327.077667 193.019943,332.080902 193.013733,337.547363 
	C193.005066,346.147430 192.943008,354.284912 193.025879,362.420929 
	C193.081589,367.892365 196.201096,371.478546 200.772293,371.624268 
	C205.331161,371.769592 208.666962,368.217865 208.993179,362.871185 
	C209.388214,356.396759 212.201874,352.976807 217.085617,353.035065 
	C222.169586,353.095703 224.983078,356.801941 224.994553,363.549164 
	C225.014038,375.007172 225.157791,386.468414 224.927917,397.921814 
	C224.826904,402.954620 226.295105,406.666473 231.011200,408.786865 
z"/>
<path fill="#5AD6FE" opacity="1.000000" stroke="none" 
	d="
M168.915680,289.186768 
	C159.631210,298.702393 150.438919,307.833191 141.137512,316.851471 
	C136.057297,321.777039 129.860245,322.724030 125.593384,318.388702 
	C123.186150,315.942841 121.407570,311.889648 121.204086,308.450562 
	C120.615875,298.509277 120.969360,288.512238 120.888565,278.033875 
	C120.857620,276.273834 120.891258,275.017029 120.879227,273.378754 
	C118.868927,260.659515 124.637634,252.142365 133.490845,244.169891 
	C145.569046,233.293259 156.693665,221.357697 168.530411,209.702209 
	C168.876602,235.937195 168.919479,262.346100 168.915680,289.186768 
z"/>
<path fill="#2487C3" opacity="1.000000" stroke="none" 
	d="
M232.581604,208.928772 
	C239.272797,210.504715 240.982544,212.541107 240.988312,218.887619 
	C241.016327,249.651855 240.973602,280.416199 241.034393,311.180328 
	C241.042282,315.173187 239.938721,318.359985 235.659195,320.658051 
	C233.424515,320.933868 231.819427,320.898102 230.214355,320.862305 
	C226.271347,318.489960 224.907074,315.047913 224.927841,310.436401 
	C225.064865,280.032928 225.043091,249.628403 224.956909,219.224548 
	C224.941803,213.896332 226.632401,210.163498 232.581604,208.928772 
z"/>
<path fill="#5BD6FE" opacity="1.000000" stroke="none" 
	d="
M232.917786,177.092834 
	C211.640106,177.114624 197.320724,161.074677 193.911865,146.561920 
	C188.013840,121.451866 206.262054,97.542274 232.442566,96.868935 
	C232.868942,96.808754 232.966980,97.006271 232.995056,97.556824 
	C232.997238,103.024765 232.971329,107.942162 232.528885,112.912964 
	C221.780441,113.426407 214.435745,118.559250 210.697067,127.994537 
	C207.080093,137.122665 208.278076,145.837296 215.645630,153.468872 
	C220.559143,158.519714 226.367477,160.723892 232.963776,161.603882 
	C233.008652,166.972824 233.036469,171.884811 233.064301,176.796799 
	C233.064301,176.796799 232.966705,176.994202 232.917786,177.092834 
z"/>
<path fill="#463C4B" opacity="1.000000" stroke="none" 
	d="
M229.725586,320.905090 
	C231.819427,320.898102 233.424515,320.933868 235.424042,320.913452 
	C247.889145,320.915771 259.959808,320.974274 272.492432,321.095398 
	C272.966217,326.152008 272.977997,331.146057 272.517883,336.577209 
	C245.704651,337.037628 219.363358,337.060913 193.022034,337.084167 
	C193.019943,332.080902 193.017853,327.077667 193.025177,321.617706 
	C205.102020,321.089996 217.169418,321.018951 229.725586,320.905090 
z"/>
<path fill="#2387C2" opacity="1.000000" stroke="none" 
	d="
M345.096924,284.867096 
	C345.089722,285.947327 345.082550,287.027588 345.106506,288.514221 
	C345.091248,295.409698 345.010254,301.898804 345.009216,308.387878 
	C345.008392,313.684937 343.085510,317.808655 338.024048,319.991272 
	C332.878601,322.210205 328.690369,320.475128 324.952759,316.731964 
	C315.898102,307.663849 306.789154,298.649933 297.433624,289.472839 
	C297.126678,262.946411 297.088135,236.561371 297.365265,209.875153 
	C311.824524,223.673111 325.958069,237.782333 340.118805,251.864212 
	C343.615845,255.341782 345.268097,259.358765 345.075684,264.404694 
	C344.815979,271.215332 345.065765,278.045380 345.096924,284.867096 
z"/>
<path fill="#565A6E" opacity="1.000000" stroke="none" 
	d="
M345.328064,284.617371 
	C345.065765,278.045380 344.815979,271.215332 345.075684,264.404694 
	C345.268097,259.358765 343.615845,255.341782 340.118805,251.864212 
	C325.958069,237.782333 311.824524,223.673111 297.413940,209.426361 
	C297.113861,196.776306 297.080841,184.273834 297.110779,171.293488 
	C316.720490,181.585159 331.611969,197.095276 343.029999,216.076950 
	C354.201813,234.649277 359.631836,254.952286 360.840454,276.478973 
	C360.913025,277.771912 360.849884,279.072418 360.849884,280.326477 
	C355.775818,282.539398 349.289276,278.288971 345.328064,284.617371 
z"/>
<path fill="#2487C3" opacity="1.000000" stroke="none" 
	d="
M232.945419,112.859550 
	C232.971329,107.942162 232.997238,103.024765 233.043961,97.655640 
	C252.794937,96.535561 270.105225,111.951576 272.797211,132.588379 
	C275.320404,151.931061 261.448395,171.661789 242.281616,175.854828 
	C239.542740,176.453995 236.699661,176.576813 233.484558,176.858444 
	C233.036469,171.884811 233.008652,166.972824 233.374573,161.549255 
	C244.368439,160.167770 251.955231,154.920120 255.527863,144.897675 
	C258.961090,135.266251 256.723663,126.653397 249.023773,119.294357 
	C244.430588,114.724678 239.039810,112.880951 232.945419,112.859550 
z"/>
<path fill="#5AD7FE" opacity="1.000000" stroke="none" 
	d="
M193.013733,337.547363 
	C219.363358,337.060913 245.704651,337.037628 272.511902,337.048859 
	C272.985107,352.376709 273.015656,367.670044 272.988403,382.963318 
	C272.977203,389.254364 270.001953,392.921387 265.045898,392.956787 
	C260.084747,392.992279 257.046875,389.299316 257.009460,383.065369 
	C256.968536,376.250092 257.041748,369.433990 256.984985,362.618958 
	C256.935730,356.702576 253.950577,353.124847 249.135742,353.035797 
	C244.169128,352.943878 241.034409,356.654022 241.013229,362.838776 
	C240.971664,374.973633 240.951309,387.108948 241.023651,399.243500 
	C241.049072,403.506683 239.541443,406.659058 235.230179,408.568115 
	C233.920334,408.815491 232.861938,408.843048 231.407379,408.828735 
	C226.295105,406.666473 224.826904,402.954620 224.927917,397.921814 
	C225.157791,386.468414 225.014038,375.007172 224.994553,363.549164 
	C224.983078,356.801941 222.169586,353.095703 217.085617,353.035065 
	C212.201874,352.976807 209.388214,356.396759 208.993179,362.871185 
	C208.666962,368.217865 205.331161,371.769592 200.772293,371.624268 
	C196.201096,371.478546 193.081589,367.892365 193.025879,362.420929 
	C192.943008,354.284912 193.005066,346.147430 193.013733,337.547363 
z"/>
<path fill="#463D4D" opacity="1.000000" stroke="none" 
	d="
M249.169388,119.577400 
	C256.723663,126.653397 258.961090,135.266251 255.527863,144.897675 
	C251.955231,154.920120 244.368439,160.167770 233.357529,161.092316 
	C226.367477,160.723892 220.559143,158.519714 215.995377,153.333466 
	C221.927872,147.290131 227.810257,141.749207 233.498367,136.015549 
	C238.828964,130.642258 243.953934,125.064941 249.169388,119.577400 
z"/>
<path fill="#555B6F" opacity="1.000000" stroke="none" 
	d="
M249.023773,119.294357 
	C243.953934,125.064941 238.828964,130.642258 233.498367,136.015549 
	C227.810257,141.749207 221.927872,147.290131 215.780548,153.050568 
	C208.278076,145.837296 207.080093,137.122665 210.697067,127.994537 
	C214.435745,118.559250 221.780441,113.426407 232.528885,112.912964 
	C239.039810,112.880951 244.430588,114.724678 249.023773,119.294357 
z"/>
</svg>